<svg xmlns="http://www.w3.org/2000/svg" viewBox="0 0 64 64" role="img" aria-label="MindAI favicon light">
  <defs>
    <linearGradient id="discGrad" x1="0%" y1="100%" x2="100%" y2="0%">
      <stop offset="0%" stop-color="#0B3A8F"/>
      <stop offset="45%" stop-color="#1296DB"/>
      <stop offset="75%" stop-color="#1FAE61"/>
      <stop offset="100%" stop-color="#B7D21A"/>
    </linearGradient>
    <linearGradient id="ringGrad" x1="0%" y1="50%" x2="100%" y2="50%">
      <stop offset="0%" stop-color="#1E88E5"/>
      <stop offset="55%" stop-color="#27AE60"/>
      <stop offset="100%" stop-color="#D4E21B"/>
    </linearGradient>
  </defs>

  <rect width="64" height="64" rx="14" fill="#FFFFFF"/>
  <ellipse cx="31" cy="34" rx="14" ry="10" transform="rotate(-18 31 34)" fill="#0A2B66"/>
  <ellipse cx="32" cy="26" rx="16" ry="11" transform="rotate(-18 32 26)" fill="url(#discGrad)"/>
  <ellipse cx="32" cy="26" rx="16" ry="11" transform="rotate(-18 32 26)" fill="none" stroke="#0E2B62" stroke-width="1.2"/>

  <path d="M10 36 C16 42, 29 45, 43 41 C51 39, 57 34, 59 28"
        fill="none" stroke="url(#ringGrad)" stroke-width="3.2" stroke-linecap="round"/>
  <path d="M12 35 C18 40, 30 42, 42 39 C49 37, 54 33, 56 29"
        fill="none" stroke="#FFFFFF" stroke-width="1.5" stroke-linecap="round"/>

  <circle cx="55" cy="25" r="2.6" fill="#66BB33"/>
  <rect x="28" y="22" width="8" height="8" rx="1" fill="#FFF5BF" stroke="#F0C419" stroke-width="1.2"/>

  <g stroke="#FFFFFF" stroke-width="1.3" stroke-linecap="round">
    <path d="M32 26 L32 16"/>
    <path d="M32 26 L38 19"/>
    <path d="M32 26 L43 23"/>
    <path d="M32 26 L43 29"/>
    <path d="M32 26 L38 34"/>
    <path d="M32 26 L32 36"/>
    <path d="M32 26 L26 34"/>
    <path d="M32 26 L21 29"/>
    <path d="M32 26 L21 23"/>
    <path d="M32 26 L26 19"/>
  </g>
</svg>
